<?xml version="1.0" standalone="no"?>
<!DOCTYPE svg PUBLIC "-//W3C//DTD SVG 20010904//EN"
 "http://www.w3.org/TR/2001/REC-SVG-20010904/DTD/svg10.dtd">
<svg version="1.0" xmlns="http://www.w3.org/2000/svg"
 width="500.000000pt" height="500.000000pt" viewBox="0 0 500.000000 500.000000"
 preserveAspectRatio="xMidYMid meet">
<metadata>
Created by potrace 1.16, written by Peter Selinger 2001-2019
</metadata>
<g transform="translate(0.000000,500.000000) scale(0.100000,-0.100000)"
fill="#000000" stroke="none">
<path d="M865 3610 l-320 -320 60 0 60 0 262 262 263 262 40 -39 40 -39 30 29
30 29 -67 68 c-37 37 -70 68 -73 68 -3 0 -149 -144 -325 -320z"/>
<path d="M1230 3595 l-325 -325 55 0 55 0 195 196 c107 107 230 227 273 266
l78 71 268 -267 267 -267 52 3 52 3 -322 323 -323 322 -325 -325z"/>
<path d="M2360 3849 c-105 -61 -117 -207 -24 -288 42 -37 69 -45 135 -39 72 7
89 27 89 105 l0 63 -55 0 c-30 0 -55 -4 -55 -10 0 -5 18 -10 40 -10 l40 0 0
-54 c0 -54 -1 -55 -36 -66 -68 -23 -147 9 -179 70 -23 44 -19 121 8 160 42 62
130 88 187 55 14 -8 31 -14 38 -15 23 0 12 18 -22 34 -47 22 -123 20 -166 -5z"/>
<path d="M2630 3695 c0 -183 15 -243 22 -84 3 81 6 93 27 110 14 11 39 19 61
19 22 0 47 -8 61 -19 21 -17 24 -29 27 -110 2 -50 8 -91 13 -91 5 0 9 40 9 90
0 84 -2 92 -27 120 -38 42 -90 50 -138 22 l-35 -21 0 69 c0 40 -4 70 -10 70
-6 0 -10 -65 -10 -175z"/>
<path d="M3510 3849 c-105 -61 -117 -207 -24 -288 42 -37 69 -45 135 -39 72 7
89 27 89 105 l0 63 -55 0 c-30 0 -55 -4 -55 -10 0 -5 18 -10 40 -10 l40 0 0
-54 c0 -54 -1 -55 -36 -66 -68 -23 -147 9 -179 70 -23 44 -19 121 8 160 42 62
130 88 187 55 14 -8 31 -14 38 -15 23 0 12 18 -22 34 -47 22 -123 20 -166 -5z"/>
<path d="M3780 3695 c0 -183 15 -243 22 -84 3 81 6 93 27 110 14 11 39 19 61
19 22 0 47 -8 61 -19 21 -17 24 -29 27 -110 2 -50 8 -91 13 -91 5 0 9 40 9 90
0 84 -2 92 -27 120 -38 42 -90 50 -138 22 l-35 -21 0 69 c0 40 -4 70 -10 70
-6 0 -10 -65 -10 -175z"/>
<path d="M2995 3756 c-45 -20 -67 -50 -72 -99 -6 -55 16 -101 59 -123 38 -20
110 -14 137 10 17 16 19 15 24 -5 11 -41 27 -7 27 57 0 107 -34 159 -111 170
-19 2 -47 -2 -64 -10z m119 -47 c45 -53 33 -125 -26 -155 -80 -41 -167 35
-138 121 15 45 44 65 96 65 35 0 47 -5 68 -31z"/>
<path d="M4395 3756 c-45 -20 -67 -50 -72 -99 -6 -55 16 -101 59 -123 38 -20
110 -14 137 10 17 16 19 15 24 -5 11 -41 27 -7 27 57 0 107 -34 159 -111 170
-19 2 -47 -2 -64 -10z m119 -47 c45 -53 33 -125 -26 -155 -80 -41 -167 35
-138 121 15 45 44 65 96 65 35 0 47 -5 68 -31z"/>
</g>
</svg>
