<?xml version="1.0" encoding="utf-8"?>
<!-- Generator: Adobe Illustrator 19.0.0, SVG Export Plug-In . SVG Version: 6.00 Build 0)  -->
<svg version="1.1" id="Layer_1" xmlns="http://www.w3.org/2000/svg" xmlns:xlink="http://www.w3.org/1999/xlink" x="0px" y="0px"
	 viewBox="0 0 612 792" style="enable-background:new 0 0 612 792;" xml:space="preserve">
<style type="text/css">
	.st0{fill:#333258;}
	.st1{fill:#F1595A;}
	.st2{fill:none;}
</style>
<g id="XMLID_1_">
	<path id="XMLID_13_" class="st0" d="M298.5,100.7c3.9,0,6.9,0,9,0c2.2,0,4.7,0,7.5,0c-0.5,6.7-0.9,14.8-1.1,24.3
		c-6.8,1.5-12.6,2.2-17.4,2.2c-3.6,0-7-0.5-10.2-1.4c-3.3-0.9-6-2.3-8.3-4.2c-2.2-1.9-3.9-4.3-5.1-7.3s-1.7-6.1-1.7-9.4
		c0-3.8,0.7-7.3,2.1-10.6c1.4-3.3,3.4-6.1,6-8.3s5.5-3.9,8.7-4.8s6.8-1.4,10.7-1.4c4.3,0,9.1,0.6,14.4,1.7c0,1.7,0.2,3.5,0.3,5.5
		c-3.1-1-5.9-1.7-8.2-2.1c-2.3-0.4-4.4-0.6-6.3-0.6c-3,0-5.9,0.5-8.7,1.4c-2.7,0.9-5.1,2.3-7,4.2c-2,1.9-3.4,4.2-4.4,7
		c-1,2.8-1.5,5.6-1.5,8.6c0,2.6,0.4,5.1,1.2,7.4c0.8,2.3,2.1,4.2,3.7,5.6c1.7,1.5,3.7,2.6,6.1,3.4c2.4,0.8,5,1.2,7.8,1.2
		c1.5,0,3.3-0.1,5.5-0.4c2.1-0.3,4.2-0.8,6.4-1.4l0.7-15.9h-3.2c-2.1,0-4.5,0.1-7.3,0.2C298.4,103.6,298.5,102.1,298.5,100.7z"/>
	<path id="XMLID_67_" class="st0" d="M323.3,126.5l0.8-14.7l0.8-20l0.2-11.4l3.1,0c0.8,0,1.8,0,3,0l-0.7,11.7l-0.3,7
		c0.5-1,1-1.7,1.4-2.3s0.9-1.1,1.5-1.7c0.6-0.6,1.3-1.1,1.9-1.5c0.7-0.4,1.4-0.8,2.3-1.1c0.8-0.3,1.8-0.6,3-0.8
		c1.2-0.2,2.4-0.3,3.7-0.3c1.9,0,3.7,0.2,5.5,0.6c1.7,0.4,3.2,1.1,4.5,2.1c1.2,1,2.1,2.2,2.6,3.5c0.5,1.4,0.7,2.8,0.7,4.2
		c0,0.6,0,1.3,0,2.2c-0.1,1.4-0.2,3-0.3,4.9l-0.6,12.4c-0.1,1.3-0.1,3-0.1,4.9c-1.3,0-2.3-0.1-3-0.1c-0.8,0-1.8,0-3.2,0.1
		c0.2-2.4,0.5-6.2,0.9-11.4c0.3-5.2,0.5-8.8,0.5-10.8c0-1.8-0.3-3.3-1-4.5c-0.7-1.2-1.7-2.1-3.2-2.7c-1.5-0.6-3.2-0.9-5-0.9
		c-1.7,0-3.3,0.3-4.7,0.8c-1.3,0.5-2.5,1.1-3.4,2c-0.9,0.9-1.7,1.9-2.2,3.1c-0.6,1.3-1,2.7-1.3,4c-0.4,2.1-0.7,5.1-0.8,8.9
		c-0.1,2.3-0.2,6.1-0.4,11.6c-1.3,0-2.2-0.1-2.8-0.1C325.9,126.4,324.8,126.4,323.3,126.5z"/>
	<path id="XMLID_69_" class="st0" d="M367.2,97.8c0.2-1,0.4-2.4,0.6-4.4c2.7-0.7,5-1.2,7-1.4s3.9-0.4,5.8-0.4c2,0,3.9,0.2,5.7,0.6
		c1.8,0.4,3.2,1,4.4,1.8c1.2,0.8,1.9,1.8,2.3,2.9s0.6,2.2,0.6,3.5c0,1.5-0.1,4.1-0.4,7.8c-0.2,3.7-0.4,7-0.5,10.1
		c-0.1,3.1-0.2,5.9-0.2,8.3c-1.2,0-2.2-0.1-3-0.1c-0.7,0-1.7,0-3.1,0.1l0.7-9.2l0.5-10.9c-0.8,0.6-1.4,1-1.8,1.3
		c-0.4,0.2-0.8,0.5-1.3,0.7c-0.5,0.2-1,0.4-1.6,0.6c-0.6,0.2-1.8,0.5-3.5,1s-2.9,0.8-3.7,1.1c-1.6,0.5-2.8,1-3.7,1.5
		c-0.9,0.5-1.7,1-2.3,1.6s-1,1.2-1.3,1.8c-0.3,0.7-0.4,1.5-0.4,2.3c0,1.2,0.4,2.3,1.1,3.2c0.7,0.9,1.6,1.5,2.7,1.9
		c1.1,0.3,2.4,0.5,3.9,0.5c0.9,0,1.9-0.1,3-0.2c1-0.1,2.4-0.5,4.1-1c-0.3,0.9-0.7,2.2-1.1,4c-1.6,0.3-3,0.5-4,0.6
		c-1,0.1-2,0.1-2.9,0.1c-3.1,0-5.5-0.4-7.2-1.1s-3-1.8-3.9-3.3c-0.9-1.5-1.3-3.1-1.3-4.8c0-1,0.2-1.9,0.5-2.8
		c0.3-0.9,0.7-1.6,1.2-2.3s1.3-1.4,2.2-2.1c1-0.7,2-1.3,3-1.7c1-0.4,2.3-0.9,3.7-1.3c1.4-0.4,3.6-1,6.7-1.8c1-0.2,1.8-0.5,2.5-0.7
		c0.7-0.2,1.3-0.5,1.9-0.7s1-0.5,1.4-0.8c0.4-0.3,0.8-0.7,1.1-1.1c0.3-0.4,0.6-0.9,0.7-1.3c0.2-0.4,0.2-0.9,0.2-1.3
		c0-1.1-0.4-2-1.1-2.8s-1.7-1.3-2.8-1.7c-1.2-0.3-2.5-0.5-4.1-0.5c-1.5,0-3,0.1-4.5,0.4c-1.5,0.2-2.9,0.5-4,0.8
		C370.3,96.6,368.9,97.1,367.2,97.8z"/>
	<path id="XMLID_71_" class="st0" d="M401.6,126.5c0.8-13,1.2-23.3,1.2-31l0-3.1c1.1,0,2.1,0,2.8,0c0.9,0,1.8,0,2.9,0l-0.3,5.6
		c0.8-1.4,1.6-2.4,2.2-3.1c0.6-0.7,1.4-1.3,2.2-1.8c0.8-0.5,1.7-0.8,2.7-1.1s2.1-0.4,3.2-0.4c0.9,0,1.9,0.1,2.8,0.3
		c0,1.5,0.1,3.1,0.2,5c-1.4-0.4-2.6-0.6-3.7-0.6c-1.3,0-2.5,0.2-3.6,0.7c-1.1,0.4-2,1.1-2.8,2c-0.8,0.9-1.5,1.9-2.1,3.2
		c-0.4,1-0.8,2.3-1,3.8c-0.2,1.6-0.4,4.4-0.6,8.6c-0.1,3-0.1,6.2-0.1,9.6v2.3c-1.2,0-2.2-0.1-2.9-0.1
		C404,126.4,403,126.4,401.6,126.5z"/>
	<path id="XMLID_73_" class="st0" d="M452.6,100.7c3.9,0,6.9,0,9,0c2.2,0,4.7,0,7.5,0c-0.5,6.7-0.9,14.8-1.1,24.3
		c-6.8,1.5-12.6,2.2-17.4,2.2c-3.6,0-7-0.5-10.2-1.4c-3.3-0.9-6-2.3-8.3-4.2s-3.9-4.3-5.1-7.3c-1.1-3-1.7-6.1-1.7-9.4
		c0-3.8,0.7-7.3,2.1-10.6c1.4-3.3,3.4-6.1,6-8.3s5.5-3.9,8.7-4.8s6.8-1.4,10.7-1.4c4.3,0,9.1,0.6,14.4,1.7c0,1.7,0.2,3.5,0.3,5.5
		c-3.1-1-5.9-1.7-8.2-2.1c-2.3-0.4-4.4-0.6-6.3-0.6c-3,0-5.9,0.5-8.7,1.4c-2.7,0.9-5.1,2.3-7,4.2s-3.4,4.2-4.4,7
		c-1,2.8-1.5,5.6-1.5,8.6c0,2.6,0.4,5.1,1.2,7.4c0.8,2.3,2.1,4.2,3.7,5.6c1.7,1.5,3.7,2.6,6.1,3.4c2.4,0.8,5,1.2,7.8,1.2
		c1.5,0,3.3-0.1,5.5-0.4c2.1-0.3,4.2-0.8,6.4-1.4l0.7-15.9h-3.2c-2.1,0-4.5,0.1-7.3,0.2C452.6,103.6,452.6,102.1,452.6,100.7z"/>
	<path id="XMLID_75_" class="st0" d="M477.4,126.5l0.8-14.7l0.8-20l0.2-11.4l3.1,0c0.8,0,1.8,0,3,0l-0.7,11.7l-0.3,7
		c0.5-1,1-1.7,1.4-2.3s0.9-1.1,1.5-1.7c0.6-0.6,1.3-1.1,1.9-1.5c0.7-0.4,1.4-0.8,2.3-1.1c0.8-0.3,1.8-0.6,3-0.8
		c1.2-0.2,2.4-0.3,3.7-0.3c1.9,0,3.7,0.2,5.5,0.6c1.7,0.4,3.2,1.1,4.5,2.1c1.2,1,2.1,2.2,2.6,3.5c0.5,1.4,0.7,2.8,0.7,4.2
		c0,0.6,0,1.3,0,2.2c-0.1,1.4-0.2,3-0.3,4.9l-0.6,12.4c-0.1,1.3-0.1,3-0.1,4.9c-1.3,0-2.3-0.1-3-0.1c-0.8,0-1.8,0-3.2,0.1
		c0.2-2.4,0.5-6.2,0.9-11.4c0.3-5.2,0.5-8.8,0.5-10.8c0-1.8-0.3-3.3-1-4.5c-0.7-1.2-1.7-2.1-3.2-2.7c-1.5-0.6-3.2-0.9-5-0.9
		c-1.7,0-3.3,0.3-4.7,0.8c-1.3,0.5-2.5,1.1-3.4,2c-0.9,0.9-1.7,1.9-2.2,3.1c-0.6,1.3-1,2.7-1.3,4c-0.4,2.1-0.7,5.1-0.8,8.9
		c-0.1,2.3-0.2,6.1-0.4,11.6c-1.3,0-2.2-0.1-2.8-0.1C480,126.4,478.9,126.4,477.4,126.5z"/>
	<path id="XMLID_77_" class="st0" d="M513.6,142.1c-0.2-1.9-0.3-3.5-0.6-4.8c1.1,0.5,2.2,0.9,3.1,1.1c1,0.2,1.8,0.3,2.5,0.3
		c0.9,0,1.7-0.2,2.6-0.5c0.8-0.3,1.5-0.7,2-1.3c0.5-0.5,1.1-1.2,1.6-2.2c0.6-0.9,1.2-2,1.8-3.2c0.6-1.2,1.3-2.6,1.8-4.1l-7.2-20.5
		L516,92.3c1.6,0,2.7,0.1,3.3,0.1c0.6,0,1.6,0,3.1-0.1c0.4,1.6,0.7,2.8,0.9,3.6c0.2,0.8,0.8,2.5,1.6,5.1l5.1,15.5
		c0.6,1.8,1.1,3.6,1.7,5.7l3.8-9.3l7-16.5c0.2-0.5,0.4-1,0.6-1.5s0.5-1.4,0.9-2.5c1.4,0,2.4,0.1,3,0.1c0.5,0,1.5,0,3.1-0.1
		c-0.9,2-3,6.7-6.4,14l-12.5,27.8c-0.9,1.9-1.7,3.3-2.4,4.2c-0.6,0.8-1.2,1.4-1.9,2c-0.5,0.5-1.1,0.9-1.8,1.2
		c-0.8,0.4-1.7,0.7-2.7,0.9c-1.1,0.2-2.1,0.3-3.2,0.3C517.5,142.8,515.6,142.6,513.6,142.1z"/>
	<path id="XMLID_79_" class="st0" d="M555.2,97.8c0.2-1,0.4-2.4,0.6-4.4c2.7-0.7,5-1.2,7-1.4s3.9-0.4,5.8-0.4c2,0,3.9,0.2,5.7,0.6
		c1.8,0.4,3.2,1,4.4,1.8c1.2,0.8,1.9,1.8,2.3,2.9s0.6,2.2,0.6,3.5c0,1.5-0.1,4.1-0.4,7.8c-0.2,3.7-0.4,7-0.5,10.1
		c-0.1,3.1-0.2,5.9-0.2,8.3c-1.2,0-2.2-0.1-3-0.1c-0.7,0-1.7,0-3.1,0.1l0.7-9.2l0.5-10.9c-0.8,0.6-1.4,1-1.8,1.3
		c-0.4,0.2-0.8,0.5-1.3,0.7c-0.5,0.2-1,0.4-1.6,0.6c-0.6,0.2-1.8,0.5-3.5,1s-2.9,0.8-3.7,1.1c-1.6,0.5-2.8,1-3.7,1.5
		c-0.9,0.5-1.7,1-2.3,1.6s-1,1.2-1.3,1.8c-0.3,0.7-0.4,1.5-0.4,2.3c0,1.2,0.4,2.3,1.1,3.2c0.7,0.9,1.6,1.5,2.7,1.9
		c1.1,0.3,2.4,0.5,3.9,0.5c0.9,0,1.9-0.1,3-0.2c1-0.1,2.4-0.5,4.1-1c-0.3,0.9-0.7,2.2-1.1,4c-1.6,0.3-3,0.5-4,0.6
		c-1,0.1-2,0.1-2.9,0.1c-3.1,0-5.5-0.4-7.2-1.1s-3-1.8-3.9-3.3c-0.9-1.5-1.3-3.1-1.3-4.8c0-1,0.2-1.9,0.5-2.8
		c0.3-0.9,0.7-1.6,1.2-2.3s1.3-1.4,2.2-2.1c1-0.7,2-1.3,3-1.7c1-0.4,2.3-0.9,3.7-1.3c1.4-0.4,3.6-1,6.7-1.8c1-0.2,1.8-0.5,2.5-0.7
		c0.7-0.2,1.3-0.5,1.9-0.7s1-0.5,1.4-0.8c0.4-0.3,0.8-0.7,1.1-1.1c0.3-0.4,0.6-0.9,0.7-1.3c0.2-0.4,0.2-0.9,0.2-1.3
		c0-1.1-0.4-2-1.1-2.8s-1.7-1.3-2.8-1.7c-1.2-0.3-2.5-0.5-4.1-0.5c-1.5,0-3,0.1-4.5,0.4c-1.5,0.2-2.9,0.5-4,0.8
		C558.2,96.6,556.8,97.1,555.2,97.8z"/>
</g>
<rect id="XMLID_3_" x="107.8" y="80.6" transform="matrix(0.7071 0.7071 -0.7071 0.7071 97.7272 -62.2462)" class="st1" width="32.3" height="12.5"/>
<polygon id="XMLID_6_" class="st1" points="126.1,79.8 117.2,71 24.6,163.6 24.7,163.8 42.1,163.8 "/>
<polygon id="XMLID_2_" class="st1" points="179.4,79.8 170.6,71 77.9,163.6 78.1,163.8 95.5,163.8 "/>
<polygon id="XMLID_4_" class="st1" points="161.9,79.8 170.8,71 263.4,163.6 263.3,163.8 245.9,163.8 "/>
<rect id="XMLID_5_" x="152.9" y="130.7" class="st1" width="16.3" height="14.5"/>
<rect id="XMLID_7_" x="173.5" y="130.7" class="st1" width="16.3" height="14.5"/>
<rect id="XMLID_9_" x="152.9" y="150.3" class="st1" width="16.3" height="14.5"/>
<rect id="XMLID_8_" x="173.5" y="150.3" class="st1" width="16.3" height="14.5"/>
<g id="XMLID_11_">
	<rect id="XMLID_65_" x="-603" y="715" class="st2" width="136" height="57"/>
</g>
<g id="XMLID_12_">
	<path id="XMLID_14_" class="st0" d="M285.2,163.1c-1.4,0.7-3,1-5.1,1c-2.6,0-4.7-0.8-6.3-2.5c-1.6-1.6-2.4-3.8-2.4-6.4
		c0-2.9,0.9-5.2,2.6-6.9s4-2.6,6.7-2.6c1.7,0,3.2,0.2,4.3,0.7v2.2c-1.3-0.7-2.8-1.1-4.3-1.1c-2.1,0-3.8,0.7-5.1,2.1
		c-1.3,1.4-2,3.2-2,5.5c0,2.2,0.6,3.9,1.8,5.2c1.2,1.3,2.8,1.9,4.8,1.9c1.8,0,3.4-0.4,4.8-1.2V163.1z"/>
	<path id="XMLID_16_" class="st0" d="M299.5,163.8h-2.1v-7.3c0-2.7-1-4-3-4c-1,0-1.9,0.4-2.6,1.2c-0.7,0.8-1,1.8-1,3v7.2h-2.1V145
		h2.1v8.2h0.1c1-1.6,2.4-2.4,4.3-2.4c2.9,0,4.4,1.7,4.4,5.2V163.8z"/>
	<path id="XMLID_18_" class="st0" d="M308.9,164.1c-1.9,0-3.5-0.6-4.6-1.8c-1.2-1.2-1.7-2.8-1.7-4.7c0-2.1,0.6-3.8,1.8-5
		c1.2-1.2,2.8-1.8,4.9-1.8c2,0,3.5,0.6,4.6,1.8c1.1,1.2,1.6,2.8,1.6,4.9c0,2-0.6,3.7-1.8,4.9C312.4,163.5,310.9,164.1,308.9,164.1z
		 M309,152.5c-1.3,0-2.4,0.4-3.2,1.3c-0.8,0.9-1.2,2.1-1.2,3.7c0,1.5,0.4,2.7,1.2,3.6c0.8,0.9,1.9,1.3,3.2,1.3
		c1.4,0,2.4-0.4,3.1-1.3c0.7-0.9,1.1-2.1,1.1-3.6c0-1.6-0.4-2.8-1.1-3.7C311.4,152.9,310.4,152.5,309,152.5z"/>
	<path id="XMLID_21_" class="st0" d="M324.2,164.1c-1.9,0-3.5-0.6-4.6-1.8c-1.2-1.2-1.7-2.8-1.7-4.7c0-2.1,0.6-3.8,1.8-5
		c1.2-1.2,2.8-1.8,4.9-1.8c2,0,3.5,0.6,4.6,1.8c1.1,1.2,1.6,2.8,1.6,4.9c0,2-0.6,3.7-1.8,4.9C327.8,163.5,326.2,164.1,324.2,164.1z
		 M324.4,152.5c-1.3,0-2.4,0.4-3.2,1.3c-0.8,0.9-1.2,2.1-1.2,3.7c0,1.5,0.4,2.7,1.2,3.6c0.8,0.9,1.9,1.3,3.2,1.3
		c1.4,0,2.4-0.4,3.1-1.3c0.7-0.9,1.1-2.1,1.1-3.6c0-1.6-0.4-2.8-1.1-3.7C326.8,152.9,325.7,152.5,324.4,152.5z"/>
	<path id="XMLID_24_" class="st0" d="M333.3,163.4v-2.2c1.1,0.8,2.4,1.2,3.8,1.2c1.8,0,2.8-0.6,2.8-1.8c0-0.3-0.1-0.6-0.2-0.9
		c-0.2-0.2-0.4-0.4-0.6-0.6s-0.6-0.3-0.9-0.5s-0.8-0.3-1.2-0.5c-0.6-0.2-1.1-0.5-1.5-0.7c-0.4-0.2-0.8-0.5-1.1-0.8
		c-0.3-0.3-0.5-0.6-0.7-1c-0.1-0.4-0.2-0.8-0.2-1.3c0-0.6,0.1-1.1,0.4-1.6c0.3-0.5,0.7-0.8,1.1-1.2c0.5-0.3,1-0.5,1.6-0.7
		c0.6-0.2,1.2-0.2,1.9-0.2c1.1,0,2.1,0.2,3,0.6v2.1c-1-0.6-2.1-0.9-3.3-0.9c-0.4,0-0.7,0-1.1,0.1c-0.3,0.1-0.6,0.2-0.8,0.4
		s-0.4,0.3-0.5,0.6c-0.1,0.2-0.2,0.5-0.2,0.7c0,0.3,0.1,0.6,0.2,0.8c0.1,0.2,0.3,0.4,0.5,0.6c0.2,0.2,0.5,0.3,0.9,0.5
		c0.3,0.1,0.7,0.3,1.2,0.5c0.6,0.2,1.1,0.4,1.6,0.7c0.5,0.2,0.9,0.5,1.2,0.8c0.3,0.3,0.6,0.6,0.7,1c0.2,0.4,0.3,0.8,0.3,1.3
		c0,0.6-0.1,1.2-0.4,1.6s-0.7,0.9-1.1,1.2c-0.5,0.3-1,0.5-1.6,0.7c-0.6,0.1-1.3,0.2-2,0.2C335.4,164.1,334.3,163.9,333.3,163.4z"/>
	<path id="XMLID_26_" class="st0" d="M355.7,158h-9.2c0,1.4,0.4,2.5,1.2,3.3c0.7,0.8,1.8,1.2,3.1,1.2c1.5,0,2.8-0.5,4.1-1.4v1.9
		c-1.1,0.8-2.7,1.2-4.6,1.2c-1.8,0-3.3-0.6-4.4-1.7c-1.1-1.2-1.6-2.8-1.6-4.9c0-2,0.6-3.6,1.7-4.8c1.2-1.2,2.6-1.9,4.3-1.9
		c1.7,0,3,0.5,4,1.6s1.4,2.6,1.4,4.5V158z M353.5,156.3c0-1.2-0.3-2.1-0.9-2.8c-0.6-0.7-1.4-1-2.4-1c-1,0-1.8,0.3-2.5,1
		c-0.7,0.7-1.1,1.6-1.3,2.7H353.5z"/>
	<path id="XMLID_29_" class="st0" d="M372.1,163.7c-0.5,0.3-1.1,0.4-2,0.4c-2.3,0-3.4-1.2-3.4-3.7v-7.5h-2.2v-1.7h2.2V148l2.1-0.7
		v3.8h3.3v1.7h-3.3v7.2c0,0.9,0.1,1.5,0.4,1.8s0.8,0.5,1.5,0.5c0.5,0,1-0.1,1.4-0.4V163.7z"/>
	<path id="XMLID_31_" class="st0" d="M385.7,163.8h-2.1v-7.3c0-2.7-1-4-3-4c-1,0-1.9,0.4-2.6,1.2s-1,1.8-1,3v7.2h-2.1V145h2.1v8.2
		h0.1c1-1.6,2.4-2.4,4.3-2.4c2.9,0,4.4,1.7,4.4,5.2V163.8z"/>
	<path id="XMLID_33_" class="st0" d="M400.2,158H391c0,1.4,0.4,2.5,1.2,3.3c0.7,0.8,1.8,1.2,3.1,1.2c1.5,0,2.8-0.5,4.1-1.4v1.9
		c-1.1,0.8-2.7,1.2-4.6,1.2c-1.8,0-3.3-0.6-4.4-1.7c-1.1-1.2-1.6-2.8-1.6-4.9c0-2,0.6-3.6,1.7-4.8c1.2-1.2,2.6-1.9,4.3-1.9
		c1.7,0,3,0.5,4,1.6s1.4,2.6,1.4,4.5V158z M398,156.3c0-1.2-0.3-2.1-0.9-2.8c-0.6-0.7-1.4-1-2.4-1c-1,0-1.8,0.3-2.5,1
		c-0.7,0.7-1.1,1.6-1.3,2.7H398z"/>
	<path id="XMLID_36_" class="st0" d="M427,151.1l-3.9,12.8h-2.2l-2.7-9.1c-0.1-0.3-0.2-0.7-0.2-1.2H418c0,0.3-0.1,0.7-0.3,1.2
		l-2.9,9.2h-2.1l-4-12.8h2.2l2.7,9.6c0.1,0.3,0.1,0.7,0.2,1.1h0.1c0-0.4,0.1-0.8,0.2-1.2l3-9.6h1.9l2.7,9.6c0.1,0.3,0.1,0.7,0.2,1.1
		h0.1c0-0.3,0.1-0.7,0.2-1.1l2.7-9.6H427z"/>
	<path id="XMLID_38_" class="st0" d="M438.8,163.8h-2.1v-2h-0.1c-0.9,1.5-2.3,2.3-4,2.3c-1.3,0-2.3-0.3-3.1-1
		c-0.7-0.7-1.1-1.6-1.1-2.7c0-2.4,1.4-3.8,4.3-4.2l3.9-0.5c0-2.2-0.9-3.2-2.7-3.2c-1.6,0-3,0.5-4.3,1.6V152c1.3-0.8,2.8-1.2,4.4-1.2
		c3.1,0,4.6,1.6,4.6,4.8V163.8z M436.7,157.4l-3.2,0.4c-1,0.1-1.7,0.4-2.2,0.7c-0.5,0.3-0.7,0.9-0.7,1.8c0,0.6,0.2,1.1,0.7,1.5
		c0.5,0.4,1.1,0.6,1.8,0.6c1,0,1.9-0.4,2.6-1.1c0.7-0.7,1-1.6,1-2.7V157.4z"/>
	<path id="XMLID_41_" class="st0" d="M453.2,151.1l-6,14.8c-1.1,2.6-2.6,4-4.5,4c-0.5,0-1-0.1-1.4-0.2v-1.8c0.5,0.1,0.9,0.2,1.2,0.2
		c1.1,0,1.8-0.6,2.4-1.8l1-2.4l-5.1-12.7h2.3l3.5,9.8c0,0.1,0.1,0.4,0.3,1h0.1c0-0.2,0.1-0.5,0.3-0.9l3.7-9.8H453.2z"/>
	<path id="XMLID_43_" class="st0" d="M473,151.1l-6,14.8c-1.1,2.6-2.6,4-4.5,4c-0.5,0-1-0.1-1.4-0.2v-1.8c0.5,0.1,0.9,0.2,1.2,0.2
		c1.1,0,1.8-0.6,2.4-1.8l1-2.4l-5.1-12.7h2.3l3.5,9.8c0,0.1,0.1,0.4,0.3,1h0.1c0-0.2,0.1-0.5,0.3-0.9l3.7-9.8H473z"/>
	<path id="XMLID_45_" class="st0" d="M480.7,164.1c-1.9,0-3.5-0.6-4.6-1.8c-1.2-1.2-1.7-2.8-1.7-4.7c0-2.1,0.6-3.8,1.8-5
		c1.2-1.2,2.8-1.8,4.9-1.8c2,0,3.5,0.6,4.6,1.8c1.1,1.2,1.6,2.8,1.6,4.9c0,2-0.6,3.7-1.8,4.9C484.3,163.5,482.7,164.1,480.7,164.1z
		 M480.8,152.5c-1.3,0-2.4,0.4-3.2,1.3c-0.8,0.9-1.2,2.1-1.2,3.7c0,1.5,0.4,2.7,1.2,3.6c0.8,0.9,1.9,1.3,3.2,1.3
		c1.4,0,2.4-0.4,3.1-1.3c0.7-0.9,1.1-2.1,1.1-3.6c0-1.6-0.4-2.8-1.1-3.7C483.2,152.9,482.2,152.5,480.8,152.5z"/>
	<path id="XMLID_48_" class="st0" d="M501.1,163.8H499v-2H499c-0.9,1.5-2.2,2.3-4,2.3c-3.1,0-4.7-1.8-4.7-5.4v-7.6h2.1v7.3
		c0,2.7,1.1,4,3.2,4c1,0,1.9-0.4,2.5-1.1c0.7-0.7,1-1.7,1-2.9v-7.3h2.1V163.8z"/>
	<path id="XMLID_50_" class="st0" d="M529,151.1l-3.9,12.8h-2.2l-2.7-9.1c-0.1-0.3-0.2-0.7-0.2-1.2H520c0,0.3-0.1,0.7-0.3,1.2
		l-2.9,9.2h-2.1l-4-12.8h2.2l2.7,9.6c0.1,0.3,0.1,0.7,0.2,1.1h0.1c0-0.4,0.1-0.8,0.2-1.2l3-9.6h1.9l2.7,9.6c0.1,0.3,0.1,0.7,0.2,1.1
		h0.1c0-0.3,0.1-0.7,0.2-1.1l2.7-9.6H529z"/>
	<path id="XMLID_52_" class="st0" d="M540.8,163.8h-2.1v-2h-0.1c-0.9,1.5-2.3,2.3-4,2.3c-1.3,0-2.3-0.3-3.1-1
		c-0.7-0.7-1.1-1.6-1.1-2.7c0-2.4,1.4-3.8,4.3-4.2l3.9-0.5c0-2.2-0.9-3.2-2.7-3.2c-1.6,0-3,0.5-4.3,1.6V152c1.3-0.8,2.8-1.2,4.4-1.2
		c3.1,0,4.6,1.6,4.6,4.8V163.8z M538.7,157.4l-3.2,0.4c-1,0.1-1.7,0.4-2.2,0.7c-0.5,0.3-0.7,0.9-0.7,1.8c0,0.6,0.2,1.1,0.7,1.5
		c0.5,0.4,1.1,0.6,1.8,0.6c1,0,1.9-0.4,2.6-1.1c0.7-0.7,1-1.6,1-2.7V157.4z"/>
	<path id="XMLID_55_" class="st0" d="M555.6,163.8h-2.1v-7.3c0-2.7-1-4.1-3-4.1c-1,0-1.9,0.4-2.6,1.2s-1,1.7-1,2.9v7.3h-2.1v-12.8
		h2.1v2.1h0.1c1-1.6,2.4-2.4,4.3-2.4c1.4,0,2.5,0.5,3.3,1.4s1.1,2.2,1.1,3.9V163.8z"/>
	<path id="XMLID_57_" class="st0" d="M565.6,163.7c-0.5,0.3-1.1,0.4-2,0.4c-2.3,0-3.4-1.2-3.4-3.7v-7.5H558v-1.7h2.2V148l2.1-0.7
		v3.8h3.3v1.7h-3.3v7.2c0,0.9,0.1,1.5,0.4,1.8s0.8,0.5,1.5,0.5c0.5,0,1-0.1,1.4-0.4V163.7z"/>
	<path id="XMLID_59_" class="st0" d="M569.1,164.1c-0.4,0-0.7-0.1-1-0.4c-0.3-0.3-0.4-0.6-0.4-1s0.1-0.7,0.4-1s0.6-0.4,1-0.4
		c0.4,0,0.7,0.1,1,0.4s0.4,0.6,0.4,1s-0.1,0.7-0.4,1C569.9,164,569.5,164.1,569.1,164.1z"/>
	<path id="XMLID_61_" class="st0" d="M574.8,164.1c-0.4,0-0.7-0.1-1-0.4c-0.3-0.3-0.4-0.6-0.4-1s0.1-0.7,0.4-1s0.6-0.4,1-0.4
		c0.4,0,0.7,0.1,1,0.4s0.4,0.6,0.4,1s-0.1,0.7-0.4,1C575.5,164,575.2,164.1,574.8,164.1z"/>
	<path id="XMLID_63_" class="st0" d="M580.5,164.1c-0.4,0-0.7-0.1-1-0.4c-0.3-0.3-0.4-0.6-0.4-1s0.1-0.7,0.4-1s0.6-0.4,1-0.4
		c0.4,0,0.7,0.1,1,0.4s0.4,0.6,0.4,1s-0.1,0.7-0.4,1C581.2,164,580.9,164.1,580.5,164.1z"/>
</g>
<g id="XMLID_10_">
</g>
<g id="XMLID_81_">
</g>
<g id="XMLID_82_">
</g>
<g id="XMLID_83_">
</g>
<g id="XMLID_84_">
</g>
<g id="XMLID_85_">
</g>
</svg>
